<svg xmlns="http://www.w3.org/2000/svg" width="317.3" height="48" viewBox="0 0 317.3 48"><title>blue</title><path d="M49.22,0V19.18h9.46L35.14,48V28.89H25.62Z" transform="translate(-25.62)" style="fill:#425362"/><path d="M114.12,26c0-1.91-.65-2.66-2.5-2.81A15.41,15.41,0,0,0,105,24.39c-.37.14-.74.3-1.25.51a47,47,0,0,1-.91-5.56c4.58-1.73,9.19-2.41,13.93-1.14A5.79,5.79,0,0,1,121.3,24c.14,5.5,0,11,0,16.59H115l-.47-2.33A10.41,10.41,0,0,1,109.45,41c-3.38.63-6.27-.57-7.41-3.16a7.44,7.44,0,0,1,2.31-9,17.33,17.33,0,0,1,7.52-2.5C112.59,26.21,113.31,26.13,114.12,26Zm.06,3.84a7.93,7.93,0,0,0-4.52,1.55,3,3,0,0,0-.76,3.51c.53.86,1.65,1.06,3.06.59a6,6,0,0,0,1.68-.93,1.14,1.14,0,0,0,.54-1C114.16,32.37,114.18,31.17,114.18,29.86Z" transform="translate(-25.62)" style="fill:#425362"/><path d="M161.88,40.55h-6.35l-.47-2.36a10.58,10.58,0,0,1-5,2.74c-3.48.69-6.42-.56-7.56-3.28A7.4,7.4,0,0,1,145,28.7a17.62,17.62,0,0,1,7.42-2.42c.71-.11,1.43-.2,2.13-.29.17-1.66-.34-2.43-1.87-2.73a12.36,12.36,0,0,0-6,.67c-.81.24-1.59.57-2.54.92-.27-1.73-.51-3.39-.79-5.05-.08-.51.27-.63.61-.75A22.48,22.48,0,0,1,156.63,18c3.25.72,5.1,2.68,5.2,6C162,29.46,161.88,35,161.88,40.55Zm-7.21-10.77a8.64,8.64,0,0,0-4.4,1.57,2.9,2.9,0,0,0-.91,3.47c.49.93,1.68,1.19,3.13.7a6.59,6.59,0,0,0,1.68-.94,1,1,0,0,0,.5-.9C154.65,32.44,154.67,31.19,154.67,29.78Z" transform="translate(-25.62)" style="fill:#425362"/><path d="M208.5,31.08h-13a4,4,0,0,0,3.23,4.34c2.68.64,5.11-.21,7.49-1.28a3.81,3.81,0,0,1,1.78-.7c.21,1.51.41,3,.63,4.52.08.53-.27.7-.63.9a16.16,16.16,0,0,1-13.45,1.31,9,9,0,0,1-5.91-6.26,15.42,15.42,0,0,1,.08-9.43c1.62-5,5.92-7.61,11.56-7,4.44.44,7.69,4,8.28,9.06A11.46,11.46,0,0,1,208.5,31.08ZM201.71,27c-.08-2.92-1.33-4.72-3.22-4.71S195.43,24,195.25,27Z" transform="translate(-25.62)" style="fill:#425362"/><path d="M80.55,8.74h8V33.35c2.89,0,5.63,0,8.36,0,1,0,1.4.2,1.5,1.27.17,1.88.56,3.73.87,5.71H80.55Z" transform="translate(-25.62)" style="fill:#425362"/><path d="M164.3,18.43l7.62-.89c1.3,4.42,2.6,8.81,3.9,13.24.4-.13.36-.48.44-.76,1.11-3.75,2.25-7.49,3.31-11.26a1.05,1.05,0,0,1,1.24-.94c2,0,3.94,0,6.14,0-.7,2-1.32,3.81-1.94,5.61-1.88,5.41-3.77,10.82-5.6,16.25a1.25,1.25,0,0,1-1.47,1c-1.73-.06-3.47,0-5.21,0-.53,0-.9,0-1.1-.66Q168,29.5,164.35,19A5.21,5.21,0,0,1,164.3,18.43Z" transform="translate(-25.62)" style="fill:#425362"/><path d="M328.84,21.59a13.85,13.85,0,0,1,5.86-3.27,8.46,8.46,0,0,1,4.41.19,5.11,5.11,0,0,1,3.74,5c.14,5.64,0,11.29,0,17a16,16,0,0,1-3.09.07c-.39-.41-.23-.88-.23-1.3q0-6.66,0-13.3a14.08,14.08,0,0,0-.05-1.59,3.41,3.41,0,0,0-4.15-3.19c-2.38.3-4.11,1.74-5.81,3.26-.4.36-.3.82-.3,1.25V40.55h-3.19a2.56,2.56,0,0,1-.13-1.33c0-4.44,0-8.87,0-13.3,0-4.23-2.56-5.86-6.4-4.09A14.83,14.83,0,0,0,316,24.35a1.65,1.65,0,0,0-.42,1.44V40.5a19.18,19.18,0,0,1-3.31.14V18.69h2.56c.16.86.33,1.72.53,2.71a14.42,14.42,0,0,1,5.54-3C324.46,17.55,326.89,18.5,328.84,21.59Z" transform="translate(-25.62)" style="fill:#425362"/><path d="M239.78,37.39h18.45l.46,3.16H235.46a4.41,4.41,0,0,1,.63-3.52c5.62-7.93,11.17-15.9,16.73-23.87.25-.35.48-.72.85-1.27H236.74a24,24,0,0,1-.68-3.15H258a4.28,4.28,0,0,1-.61,3.5c-5.65,8-11.24,16-16.85,24.09Z" transform="translate(-25.62)" style="fill:#425362"/><path d="M220,40.55h-7c-.25-.89-.36-29.7-.11-32.12L220,7.3Z" transform="translate(-25.62)" style="fill:#425362"/><path d="M126.21,18h6.22l.69,3.78a12.23,12.23,0,0,1,2.79-3.09,6.58,6.58,0,0,1,3.77-1.2c.39,2.39.78,4.79,1.18,7.28a15.21,15.21,0,0,0-5.28,1.57,3.8,3.8,0,0,0-2.3,3.93c.22,3,.06,6,.05,9a2.37,2.37,0,0,1-.17,1.35h-7Z" transform="translate(-25.62)" style="fill:#425362"/><path d="M286.53,29.66c.06-3.5.81-6.78,3.56-9.21a9.67,9.67,0,0,1,15.33,3.88,14.64,14.64,0,0,1,.11,10.21c-1.55,4.4-5.18,6.73-10,6.49A9.38,9.38,0,0,1,287,33.51,15.54,15.54,0,0,1,286.53,29.66Zm16.34.11a11.56,11.56,0,0,0-1.06-5.21,5.79,5.79,0,0,0-5-3.46,5.63,5.63,0,0,0-5.43,2.76c-2,3.14-1.86,8.91.3,11.9a6,6,0,0,0,9.51.06A10.24,10.24,0,0,0,302.87,29.77Z" transform="translate(-25.62)" style="fill:#425362"/><path d="M281.94,29.2c0,3.84-.77,7.05-3.46,9.46a9.45,9.45,0,0,1-9.76,1.84c-3.62-1.18-5.48-4-6.22-7.58a15.44,15.44,0,0,1,.43-8.14,9.28,9.28,0,0,1,9.38-6.61,9.38,9.38,0,0,1,9.07,7.07A12.29,12.29,0,0,1,281.94,29.2Zm-16.36.34a10.79,10.79,0,0,0,1.31,5.6,5.61,5.61,0,0,0,5.31,3A5.46,5.46,0,0,0,277.3,35a11.66,11.66,0,0,0-.1-10.85,5.51,5.51,0,0,0-5.38-3.06,5.61,5.61,0,0,0-5.13,3.29A11.51,11.51,0,0,0,265.58,29.54Z" transform="translate(-25.62)" style="fill:#425362"/></svg>